HIERARCHY
ROOT Hips
{
	OFFSET -14.64140 90.27770 -84.91600
	CHANNELS 6 Xposition Yposition Zposition Zrotation Xrotation Yrotation
	JOINT Spine
	{
		OFFSET 0.00000 13.20850 -1.60436
		CHANNELS 3 Zrotation Xrotation Yrotation
		JOINT Spine1
		{
			OFFSET 0.00000 8.61716 0.00000
			CHANNELS 3 Zrotation Xrotation Yrotation
			JOINT Spine2
			{
				OFFSET 0.00000 8.61717 0.00000
				CHANNELS 3 Zrotation Xrotation Yrotation
				JOINT Spine3
				{
					OFFSET 0.00000 8.61717 0.00000
					CHANNELS 3 Zrotation Xrotation Yrotation
					JOINT Neck
					{
						OFFSET 0.00000 11.07920 1.10792
						CHANNELS 3 Zrotation Xrotation Yrotation
						JOINT Neck1
						{
							OFFSET 0.00000 7.08032 0.00000
							CHANNELS 3 Zrotation Xrotation Yrotation
							JOINT Head
							{
								OFFSET 0.00000 7.08031 0.00000
								CHANNELS 3 Zrotation Xrotation Yrotation
								End site
								{
									OFFSET 0.00000 0.00000 0.00000
								}
							}
						}
					}
					JOINT RightShoulder
					{
						OFFSET -0.01000 7.91373 5.19711
						CHANNELS 3 Zrotation Xrotation Yrotation
						JOINT RightArm
						{
							OFFSET -18.41580 0.00000 0.00000
							CHANNELS 3 Zrotation Xrotation Yrotation
							JOINT RightForeArm
							{
								OFFSET -29.11090 0.00000 0.00000
								CHANNELS 3 Zrotation Xrotation Yrotation
								JOINT RightHand
								{
									OFFSET -24.65040 0.00000 0.00000
									CHANNELS 3 Zrotation Xrotation Yrotation
									JOINT RightHandThumb1
									{
										OFFSET -5.35114 -0.85590 3.97906
										CHANNELS 3 Zrotation Xrotation Yrotation
										JOINT RightHandThumb2
										{
											OFFSET -4.52789 0.00000 0.00000
											CHANNELS 3 Zrotation Xrotation Yrotation
											JOINT RightHandThumb3
											{
												OFFSET -2.46976 0.00000 0.00000
												CHANNELS 3 Zrotation Xrotation Yrotation
												End site
												{
													OFFSET 0.00000 0.00000 0.00000
												}
											}
										}
									}
									JOINT RightHandIndex1
									{
										OFFSET -14.26970 0.00000 2.88139
										CHANNELS 3 Zrotation Xrotation Yrotation
										JOINT RightHandIndex2
										{
											OFFSET -5.48836 0.00000 0.00000
											CHANNELS 3 Zrotation Xrotation Yrotation
											JOINT RightHandIndex3
											{
												OFFSET -3.01859 0.00000 0.00000
												CHANNELS 3 Zrotation Xrotation Yrotation
												End site
												{
													OFFSET 0.00000 0.00000 0.00000
												}
											}
										}
									}
									JOINT RightHandMiddle1
									{
										OFFSET -14.26970 0.00000 -0.09147
										CHANNELS 3 Zrotation Xrotation Yrotation
										JOINT RightHandMiddle2
										{
											OFFSET -6.17441 0.00000 0.00000
											CHANNELS 3 Zrotation Xrotation Yrotation
											JOINT RightHandMiddle3
											{
												OFFSET -3.56743 0.00000 0.00000
												CHANNELS 3 Zrotation Xrotation Yrotation
												End site
												{
													OFFSET 0.00000 0.00000 0.00000
												}
											}
										}
									}
									JOINT RightHandRing1
									{
										OFFSET -12.69180 0.00000 -3.06433
										CHANNELS 3 Zrotation Xrotation Yrotation
										JOINT RightHandRing2
										{
											OFFSET -5.62556 0.00000 0.00000
											CHANNELS 3 Zrotation Xrotation Yrotation
											JOINT RightHandRing3
											{
												OFFSET -3.56744 0.00000 0.00000
												CHANNELS 3 Zrotation Xrotation Yrotation
												End site
												{
													OFFSET 0.00000 0.00000 0.00000
												}
											}
										}
									}
									JOINT RightHandPinky1
									{
										OFFSET -11.11390 0.00000 -6.03719
										CHANNELS 3 Zrotation Xrotation Yrotation
										JOINT RightHandPinky2
										{
											OFFSET -4.52789 0.00000 0.00000
											CHANNELS 3 Zrotation Xrotation Yrotation
											JOINT RightHandPinky3
											{
												OFFSET -2.46976 0.00000 0.00000
												CHANNELS 3 Zrotation Xrotation Yrotation
												End site
												{
													OFFSET 0.00000 0.00000 0.00000
												}
											}
										}
									}
								}
							}
						}
					}
					JOINT LeftShoulder
					{
						OFFSET 0.01000 7.91373 5.19711
						CHANNELS 3 Zrotation Xrotation Yrotation
						JOINT LeftArm
						{
							OFFSET 18.41580 0.00000 0.00000
							CHANNELS 3 Zrotation Xrotation Yrotation
							JOINT LeftForeArm
							{
								OFFSET 29.11090 0.00000 0.00000
								CHANNELS 3 Zrotation Xrotation Yrotation
								JOINT LeftHand
								{
									OFFSET 24.65040 0.00000 0.00000
									CHANNELS 3 Zrotation Xrotation Yrotation
									JOINT LeftHandThumb1
									{
										OFFSET 5.35114 -0.85590 3.97906
										CHANNELS 3 Zrotation Xrotation Yrotation
										JOINT LeftHandThumb2
										{
											OFFSET 4.52789 0.00000 0.00000
											CHANNELS 3 Zrotation Xrotation Yrotation
											JOINT LeftHandThumb3
											{
												OFFSET 2.46977 0.00000 0.00000
												CHANNELS 3 Zrotation Xrotation Yrotation
												End site
												{
													OFFSET 0.00000 0.00000 0.00000
												}
											}
										}
									}
									JOINT LeftHandIndex1
									{
										OFFSET 14.26970 0.00000 2.88139
										CHANNELS 3 Zrotation Xrotation Yrotation
										JOINT LeftHandIndex2
										{
											OFFSET 5.48836 0.00000 0.00000
											CHANNELS 3 Zrotation Xrotation Yrotation
											JOINT LeftHandIndex3
											{
												OFFSET 3.01859 0.00000 0.00000
												CHANNELS 3 Zrotation Xrotation Yrotation
												End site
												{
													OFFSET 0.00000 0.00000 0.00000
												}
											}
										}
									}
									JOINT LeftHandMiddle1
									{
										OFFSET 14.26970 0.00000 -0.09147
										CHANNELS 3 Zrotation Xrotation Yrotation
										JOINT LeftHandMiddle2
										{
											OFFSET 6.17440 0.00000 0.00000
											CHANNELS 3 Zrotation Xrotation Yrotation
											JOINT LeftHandMiddle3
											{
												OFFSET 3.56744 0.00000 0.00000
												CHANNELS 3 Zrotation Xrotation Yrotation
												End site
												{
													OFFSET 0.00000 0.00000 0.00000
												}
											}
										}
									}
									JOINT LeftHandRing1
									{
										OFFSET 12.69180 0.00000 -3.06433
										CHANNELS 3 Zrotation Xrotation Yrotation
										JOINT LeftHandRing2
										{
											OFFSET 5.62556 0.00000 0.00000
											CHANNELS 3 Zrotation Xrotation Yrotation
											JOINT LeftHandRing3
											{
												OFFSET 3.56744 0.00000 0.00000
												CHANNELS 3 Zrotation Xrotation Yrotation
												End site
												{
													OFFSET 0.00000 0.00000 0.00000
												}
											}
										}
									}
									JOINT LeftHandPinky1
									{
										OFFSET 11.11390 0.00000 -6.03719
										CHANNELS 3 Zrotation Xrotation Yrotation
										JOINT LeftHandPinky2
										{
											OFFSET 4.52789 0.00000 0.00000
											CHANNELS 3 Zrotation Xrotation Yrotation
											JOINT LeftHandPinky3
											{
												OFFSET 2.46976 0.00000 0.00000
												CHANNELS 3 Zrotation Xrotation Yrotation
												End site
												{
													OFFSET 0.00000 0.00000 0.00000
												}
											}
										}
									}
								}
							}
						}
					}
					JOINT pCube4
					{
						OFFSET 0.00000 10.91090 1.10792
						CHANNELS 3 Zrotation Xrotation Yrotation
						End site
						{
							OFFSET 0.00000 0.00000 0.00000
						}
					}
				}
			}
		}
	}
	JOINT RightUpLeg
	{
		OFFSET -9.98441 0.00000 0.00000
		CHANNELS 3 Zrotation Xrotation Yrotation
		JOINT RightLeg
		{
			OFFSET 0.00000 -42.11790 0.00000
			CHANNELS 3 Zrotation Xrotation Yrotation
			JOINT RightFoot
			{
				OFFSET 0.00000 -45.00020 -0.00001
				CHANNELS 3 Zrotation Xrotation Yrotation
				JOINT RightForeFoot
				{
					OFFSET 0.00000 -3.74820 0.00000
					CHANNELS 3 Zrotation Xrotation Yrotation
					JOINT RightToeBase
					{
						OFFSET 0.00000 0.06325 14.43120
						CHANNELS 3 Zrotation Xrotation Yrotation
						End site
						{
							OFFSET 0.00000 0.00000 0.00000
						}
					}
				}
			}
		}
	}
	JOINT LeftUpLeg
	{
		OFFSET 9.98441 0.00000 0.00000
		CHANNELS 3 Zrotation Xrotation Yrotation
		JOINT LeftLeg
		{
			OFFSET 0.00000 -42.11800 0.00000
			CHANNELS 3 Zrotation Xrotation Yrotation
			JOINT LeftFoot
			{
				OFFSET 0.00000 -45.00070 0.00000
				CHANNELS 3 Zrotation Xrotation Yrotation
				JOINT LeftForeFoot
				{
					OFFSET 0.00000 -3.74824 0.00000
					CHANNELS 3 Zrotation Xrotation Yrotation
					JOINT LeftToeBase
					{
						OFFSET 0.00000 0.06325 14.43110
						CHANNELS 3 Zrotation Xrotation Yrotation
						End site
						{
							OFFSET 0.00000 0.00000 0.00000
						}
					}
				}
			}
		}
	}
}
MOTION
Frames: 4
Frame Time: 0.050000
-0.010789377671780414 0.021014265025824288 -0.0404346751467072 0.0007844808573519583 -0.007328861732749713 0.040899963297631285 -3.5590967054997797 3.9947157815321126 -0.8296028374304651 -0.7732449264585753 4.525477953282297 0.38161952109001535 -0.8243685153559394 -0.1827636321157471 -1.5459125565089558 1.4299913399912438 0.495124354117937 -0.9428271749303319 -0.9558158807484745 13.315275990698016 -1.157179422088162 -0.1759027723239685 -1.0246470697081493 -3.3546078356103006 0.19205292193393103 -15.612846172883991 -0.20669163996838988 3.461439663799067 -0.9234006564326097 -14.737279922764438 61.85216657316302 14.92999307799312 14.137321699557843 34.58202461451574 4.670703901025629 80.21229389404766 21.077628392134507 0.07483923125349261 -7.642909921689361 4.50990115486052 -0.1047909879611664 -1.575844681346743 0.013294332790275537 0.04762490263527278 -56.27641145141109 -0.03530889208604567 0.014365761982499274 -56.18852102988219 -38.74553199394714 -0.022458955905305344 -0.0025718920899220174 0.04057071093317915 -0.014323781241456224 -0.03752630976083273 0.03939479734676893 -0.003011309085308416 -0.00901796011671119 -36.68711603187314 0.00727407935930417 -0.0337058957102935 -0.04201549402585447 0.006172437317923757 -0.0016231033465356228 0.004839602909195036 0.015299163229698048 -0.03759073516954704 -19.79964396970194 -0.010247509206618413 -0.02196744298760454 -0.02946465658805936 -0.026308417294573658 -0.0029604272436659076 -0.00404531955725972 -0.021889371200379325 -0.03866164966523558 24.099263002358636 0.01141979175501037 -0.02645759389508278 28.894699643453215 0.0164770661706402 0.02831998317220845 28.831346829971952 -0.014444888272062932 -0.011974298616623842 1.9973400698155495 0.6465343686299149 13.379825704068821 -53.74845930857211 20.58018345713544 -39.56276657917194 9.332244545599305 -0.45088337403996087 -83.77718895720528 -18.444953138982736 10.532650029778287 -7.972694587061052 -0.4548185809611011 0.117312437689785 -8.114404554935112 -0.04128840829467442 0.04543582619208088 44.58511797199146 -0.03191309311373555 -0.037522256780872044 44.530089219335345 12.48830613517451 -0.01109944600181757 0.041015487264293424 -0.0019020028028774111 -0.019024900508566003 0.009090628416820868 -0.025625101449172134 -0.0115273934600799 -0.0012811421401602366 11.068335860397243 0.0012073721489792898 -0.027751213565582883 -0.005666661386205634 0.021741480259577596 -0.04347647814410146 -0.03732742817196625 0.02189420275687784 0.015104117546501641 4.797770910198176 -0.02930230489393887 0.047264170085778684 -0.003398579037795436 -0.009498345898849481 -0.014013548753791545 0.048382585485787076 -0.018427828080835665 -0.024587923529729088 -5.584434481596948 0.007305271677338702 0.027813945491581532 -6.691543108787776 -0.016769576056605374 -0.014347348717271823 -6.72175214125291 0.00772674752059773 -0.02257206326464095 -0.03591037182203937 0.019587670350744237 0.04738670031132462 8.026528806393937 3.504146169084514 -19.19121421113896 0.004574445800036994 10.367670812254984 -0.01767752244831153 -5.654399581371553 -15.681613350081129 3.170692812117326 -0.045064302277262665 0.03707091454985752 0.027501655127777358 -0.011697390231188485 4.698846989088755 -0.01937641219340659 12.421219369097201 -8.218599724986888 6.909188907315499 0.02661155799596024 46.40877087967704 -0.0008117175321813096 -4.352819703369094 -14.782248179850802 -3.8094185391496644 0.031088412649858878 0.034327235123143895 -0.04573016596606094 0.02912753201781569 -10.732617421822873 -0.005482406161245842 
0.024410432642310367 0.02732142110780855 -0.04694508250831084 0.030045171857218125 -0.020224810341584756 -0.012250674306254742 -3.4172298103423984 4.01183487657327 -0.833347289100026 -0.78655935904375 4.4968215527521105 0.3381843461965737 -0.720010358888844 -0.22371198462415628 -1.4937379031341043 1.3887408855466312 0.37514315282167415 -0.9554658152994421 -0.9964662797624454 13.333517255734156 -1.1455216515650735 -0.24766458967037083 -1.0646708851924709 -3.5243848403267273 0.1965074861514342 -15.691921580592144 -0.24583043612705968 3.4826731421874935 -0.8871284482750913 -14.803630855159343 61.40839794242213 14.88567485473015 14.108975574092636 32.50231477124062 4.93196813375542 79.51934092662408 22.182052015205397 0.09652731056877467 -7.72555355457157 4.51911855120138 -0.16849653844459545 -1.5773980537443126 0.03327071485078246 -0.0025847315883097666 -56.259192439797566 -0.0007755569547639097 -0.049216333359975745 -56.27491249278399 -38.789982259225965 0.001245248243711208 -0.019304350842787626 -0.010432706035009407 0.007009440112695046 -0.015890011013905008 0.030596135879511363 -0.015417132509923152 0.015288577629122528 -36.68772132584914 0.016033556284037714 0.04342365448307024 -0.02974577644500575 -0.03289199031001998 0.037823163250507635 0.01495643255560662 -0.020113930082535 -0.0356123698206069 -19.730677677104172 -0.021007702158332607 0.030588761498285537 0.014839104323730553 -0.02270565285517636 -0.0438981985356763 -0.014552316719691965 0.021731765715043868 -0.016553592785553736 24.029337005623756 -0.013642011388974197 -0.0018983708024087444 28.88620980005788 -0.005130427687155715 -0.005729556987986227 28.850674496741924 0.0423118367655005 0.02319024709900902 2.1481884145436525 0.7462504333505351 13.462745662531264 -53.360405557687656 18.346906217745317 -40.0000699266458 11.181113652742479 -1.3962235668965768 -83.4664952472762 -19.343437760181953 11.050955837565564 -8.58449017703128 -0.4929561603441255 0.04137463930233036 -8.143448957792533 -0.002587906327506687 0.043645793981296734 44.52276897086674 -0.0013939421214420476 -0.0454599700711476 44.6132571398628 12.437143011568732 0.04123258839414083 -0.03442537940249806 0.011200665636114104 -0.03550106535835048 -0.049830271189987264 -0.0076088769806550135 0.027632333849604566 -0.003595221175826394 11.099609455165567 0.039085640144900055 0.011378990434749955 -0.007247045730195253 -0.026833243647388035 0.04875850412073708 0.022374070657009783 -0.04556771458713645 0.04243346754925441 4.785397340883203 -0.02376816304170621 0.005409931027338288 -0.02718146138416969 -0.005906627306626302 -0.043154248393970994 0.016914255660874813 0.008721512511441109 0.015623967455591269 -5.609578219854138 0.04599535661141598 -0.02812627162989713 -6.728781409776494 -0.03867091594349355 -0.015211060509680881 -6.762725608118884 0.002105138119306853 0.0008559021063500207 0.021675353581831154 0.0341887193228526 -0.025025932611099047 8.043516609800836 3.465323449157005 -19.182675097156004 -0.012497202730525932 10.37616855344657 0.021246896946516644 -5.602865547841754 -15.64606402529992 3.2167718111555845 0.005669144315696001 -0.0451367355198122 -0.04724661750970927 0.045125448380884725 4.673417324710322 0.01660862086476527 12.502529406617178 -8.272335714237613 6.920517965684 -0.04684847687050244 46.371341540592205 0.005486051928079918 -4.316671291652674 -14.753621512209413 -3.8410844531248216 -0.031741211388443026 -0.00882576381834959 0.0035184184494054705 0.004362442969676712 -10.696514350935866 -0.0159771653265391 
-0.011180437927331748 0.02989631369776288 0.005707148299559215 0.006403316045943197 -0.01258932173320426 0.023120460381157865 -3.298220019045487 3.9127941924699585 -0.8591454794494567 -0.7174329641198277 4.455263119478471 0.3747567509029158 -0.6966731498879444 -0.27729577976412695 -1.4761495614808908 1.3862589205571603 0.3129650334875941 -0.9107577553676393 -0.9983411014313931 13.36756712596974 -1.206913325126959 -0.19241502441794997 -1.1067053388931827 -3.522504308613097 0.19243140070762263 -15.760612429127047 -0.28198084779587124 3.5511963635271977 -0.8641559164833976 -14.776310571116218 60.969595871716024 14.78586660872204 14.042553794362242 30.78597594109031 5.761363252090708 79.09698086093861 23.306669020588927 0.06631027909225067 -7.709172520309355 4.4938757729579315 -0.11571376552242489 -1.5728887362797457 0.0312877347248756 0.0029585724402171423 -56.207434400614986 0.0019343197957945486 -0.03618377049904916 -56.23168924114205 -38.777523741740126 -0.016148674692818693 0.009102110829750437 -0.03756754314690088 0.008805514069147431 0.0332379317986303 0.027882460352573996 0.008902553424734236 0.0007442593119965043 -36.713275002663764 -0.0079465234997454 -0.011546716329627452 -0.03728630637267901 0.0030930981613602124 0.04731878988560678 0.03150295393478345 -0.00039769157232193007 0.03530161780972472 -19.79900879227891 0.013053223899864236 0.026696910093036513 -0.022010933224104245 -0.001772042755727155 0.024360892531902767 -0.010374203003795195 0.030772736705302443 0.03605449972659597 24.07495711437818 -0.04835482840042654 -0.036751610870396474 28.836886093973792 -0.007747405673631038 -0.014604801507061421 28.90016789873862 0.00015129181099282686 0.037366046111442106 2.284924873089897 0.8075273268376608 13.500644155665043 -53.158761945711916 16.34799647503058 -40.86950106364255 12.585796321212062 -2.119984515437483 -83.31928596695829 -20.331589577757875 11.793922640862842 -9.250729706516863 -0.4616714027424653 0.10056355653645228 -8.129433706794789 -0.025428321418049668 -0.04568592838590046 44.6022490697973 0.030097273971487 0.009833007027473868 44.533235264338316 12.44345300679495 -0.013222177064724177 0.00016630714835947106 0.028988271134639497 0.04338527049506628 0.03129489450522342 0.02472258926601342 -0.027124302806984517 -0.04148246092313182 11.083484349314912 0.044143201150693936 -0.00905543048415606 -0.04974050537244715 0.01541956136750447 0.04832811168311403 -0.03769748026395296 0.032777016777899015 0.0019251619076850663 4.7859716193124555 -0.035132722929331964 -0.010817765079480972 0.021863695067240802 0.046869884977559395 0.011470824233096677 -0.025138346394281242 -0.011123007529456518 0.042909225481911485 -5.606396887310418 -0.024439475397276318 -0.03481090913513491 -6.677036027704241 -0.004462449755836587 0.009472337408918261 -6.758024937663916 -0.0007004030029041665 -0.005160328858938611 -0.0008144989674962718 -0.005479644268523774 -0.012764834424472205 8.088827366609962 3.484587183239185 -19.2087163552492 0.048487936438655115 10.349775041762037 0.01550910321958605 -5.581933408240215 -15.698404025772467 3.177968601077198 -0.013470655505402726 -0.013668863982923685 -0.02203559780413627 -0.009404209613470809 4.735103749325198 -0.0071775761339069825 12.483552886438202 -8.24234061206459 6.859935930520093 -0.00993024825968508 46.3983947497243 0.034292309199234844 -4.370437758535941 -14.79102648639774 -3.82595205671381 -0.022052773081685382 0.011901395023135464 0.0008021494837160571 -0.018226657571986972 -10.752295101338785 0.03250472201590819 
-0.03367807260312127 -0.008463841484529047 0.03263130615205206 -0.004282842198677522 0.014060168630528135 -0.015279309429355828 -3.2132772144302635 3.831200902662904 -0.7899839687969034 -0.6288733619791707 4.496036315191012 0.26529810210604193 -0.6258945934750175 -0.3945179385099489 -1.4930393314212385 1.3050363035206376 0.16067222369522977 -0.8984872121171898 -1.045357787351778 13.447780074418125 -1.156441986592602 -0.2440240565852416 -1.1503192743636346 -3.3933223205347547 0.17518161605822322 -15.9129909210297 -0.23871491494385905 3.6423279682895093 -0.8942948415837644 -14.706321684945786 60.57176942244632 14.731884729273757 13.923650634942994 29.1565373528591 7.06411652668303 78.80162047775907 24.264280625087668 0.12415606360129734 -7.584082692756339 4.546727903200442 -0.13160101491053677 -1.6295814488149343 -0.047557323979248625 -0.0033274072682381722 -56.218088001706285 0.031051935559900885 -0.014080966599867979 -56.21401425108131 -38.72538189508281 0.033609865298305876 -0.022671149692380953 0.04292170888913144 0.002830479326823473 -0.018509555968564895 0.024783891729419222 -0.018960845649154682 -0.016037280913281493 -36.690177284162736 -0.012412550960076126 0.011301213661188686 -0.015843519060976655 0.006985394650691073 0.029254693425663753 0.014259904201059926 0.022794612105483905 0.045687087783359316 -19.724165834212076 -0.04317489926634939 0.022796073136596155 -0.045982682241172315 0.002300362309068651 0.029961814322395947 0.028763380525162686 -0.025825680880572948 0.015240174588982552 24.0629945261086 -0.009908202584149697 -0.007815321543484948 28.887514834475475 0.011257956142192953 -0.0070415692537875545 28.867052108620676 -0.0033470488650797717 0.0005663672517427212 2.5569963350115774 0.8342724224848498 13.555538056417115 -53.01604374700859 14.524235959247683 -41.76720343153386 13.590271981950872 -2.4894694782080973 -83.08333832074187 -21.231754322794107 12.55571693193313 -10.068754276748322 -0.4245921720178739 0.10819893783971737 -8.144147218997523 -0.038074058317769235 0.00856011394097537 44.58759604739895 0.026076053576934224 -0.016015509054424257 44.57372741442965 12.443297461041933 -0.003858095931260959 -0.034984621371040074 0.04419456255610999 -0.01238081365987172 -0.03701270474263639 0.021849968411780288 -0.013258092631105129 0.02491133791895883 11.071830205299872 -0.015380671671404302 0.02057002536380207 0.031695243248592346 -0.013625969351475283 -0.019822237588673283 -0.006873479117350337 0.01995664549288949 0.04667436487126406 4.772026969051261 -0.023292272324648707 -0.01665754918668767 0.02686783878927193 -0.002788623152100841 -0.031099680506699343 0.03259854590926338 -0.04724471035813326 0.00010326200804605043 -5.562873387553578 -0.002531581234471366 -0.037045098468239265 -6.705245970314899 0.019108154669177372 0.013952879077840498 -6.690172593054549 -0.03258849019697253 -0.015228441476756404 0.03139078496188235 -0.0363752291660965 -0.011442143492474584 8.06450907705422 3.4863528729695634 -19.225316311619615 -0.024048069516337 10.388988270821317 -0.008530144712460698 -5.6422881946449355 -15.68370020050406 3.219816388721731 0.03373254301259575 0.027376215239981908 -0.003441371547366682 -0.018488882790034085 4.722762970988802 0.02404604002166809 12.430131491906472 -8.207819642925418 6.899121830823315 -0.0492623925787438 46.40638948253251 -0.01920829906497054 -4.365215376772698 -14.73293602861168 -3.8316769615626693 -0.012188073215813914 0.037876456543175605 0.026210396505627363 -0.0029125924774063743 -10.72996305687679 -0.008137315791887739 
